M48
; DRILL file KiCad 10.0.3 date 2026-07-10T11:54:56
; FORMAT={-:-/ absolute / metric / decimal}
; #@! TF.CreationDate,2026-07-10T11:54:56+02:00
; #@! TF.GenerationSoftware,Kicad,Pcbnew,10.0.3
; #@! TF.FileFunction,Plated,1,2,PTH
FMAT,2
METRIC
; #@! TA.AperFunction,Plated,PTH,ViaDrill
T1C0.300
; #@! TA.AperFunction,Plated,PTH,ComponentDrill
T2C0.800
; #@! TA.AperFunction,Plated,PTH,ComponentDrill
T3C0.900
; #@! TA.AperFunction,Plated,PTH,ComponentDrill
T4C1.000
; #@! TA.AperFunction,Plated,PTH,ComponentDrill
T5C2.700
%
G90
G05
T1
X140.75Y-85.5
X141.25Y-83.75
X143.25Y-83.75
X143.75Y-85.5
X173.0Y-95.0
X176.5Y-95.0
T2
X117.18Y-94.487
X119.18Y-94.487
X131.84Y-94.5
X142.0Y-94.5
X153.44Y-94.79
X163.6Y-94.79
X166.64Y-97.79
X171.635Y-43.31
X176.8Y-97.79
X179.255Y-43.31
X180.34Y-97.79
X189.0Y-40.955
X189.0Y-42.955
X190.5Y-97.79
T3
X124.26Y-94.487
X126.8Y-94.487
X192.52Y-59.69
X192.52Y-69.85
X192.52Y-80.01
X195.06Y-59.69
X195.06Y-69.85
X195.06Y-80.01
T4
X119.81Y-66.135
X119.81Y-68.675
X119.81Y-71.215
X119.81Y-73.755
X119.81Y-76.295
X119.81Y-78.835
X119.81Y-81.375
X127.43Y-66.135
X127.43Y-68.675
X127.43Y-71.215
X127.43Y-73.755
X127.43Y-76.295
X127.43Y-78.835
X127.43Y-81.375
X138.555Y-66.135
X138.555Y-68.675
X138.555Y-71.215
X138.555Y-73.755
X138.555Y-76.295
X138.555Y-78.835
X138.555Y-81.375
X146.175Y-66.135
X146.175Y-68.675
X146.175Y-71.215
X146.175Y-73.755
X146.175Y-76.295
X146.175Y-78.835
X146.175Y-81.375
X157.56Y-61.385
X157.56Y-63.925
X157.56Y-66.465
X157.56Y-69.005
X157.56Y-71.545
X157.56Y-74.085
X157.56Y-76.625
X157.56Y-79.165
X157.56Y-81.705
X157.56Y-84.245
X165.18Y-61.385
X165.18Y-63.925
X165.18Y-66.465
X165.18Y-69.005
X165.18Y-71.545
X165.18Y-74.085
X165.18Y-76.625
X165.18Y-79.165
X165.18Y-81.705
X165.18Y-84.245
X173.055Y-52.085
X173.055Y-54.625
X173.055Y-57.165
X173.055Y-59.705
X173.055Y-62.245
X173.055Y-64.785
X173.055Y-67.325
X173.055Y-69.865
X173.055Y-72.405
X173.055Y-74.945
X173.055Y-77.485
X173.055Y-80.025
X173.055Y-82.565
X173.055Y-85.105
X173.055Y-87.645
X188.295Y-52.085
X188.295Y-54.625
X188.295Y-57.165
X188.295Y-59.705
X188.295Y-62.245
X188.295Y-64.785
X188.295Y-67.325
X188.295Y-69.865
X188.295Y-72.405
X188.295Y-74.945
X188.295Y-77.485
X188.295Y-80.025
X188.295Y-82.565
X188.295Y-85.105
X188.295Y-87.645
T5
X110.0Y-42.0
X110.0Y-96.5
X148.0Y-42.0
X148.0Y-96.5
X196.0Y-42.0
X196.0Y-96.5
M30
