%TF.GenerationSoftware,KiCad,Pcbnew,10.0.3*%
%TF.CreationDate,2026-07-10T11:54:48+02:00*%
%TF.ProjectId,Projet_Programmateur_ATtiny_V3,50726f6a-6574-45f5-9072-6f6772616d6d,V3*%
%TF.SameCoordinates,Original*%
%TF.FileFunction,Copper,L1,Top*%
%TF.FilePolarity,Positive*%
%FSLAX46Y46*%
G04 Gerber Fmt 4.6, Leading zero omitted, Abs format (unit mm)*
G04 Created by KiCad (PCBNEW 10.0.3) date 2026-07-10 11:54:48*
%MOMM*%
%LPD*%
G01*
G04 APERTURE LIST*
G04 Aperture macros list*
%AMRoundRect*
0 Rectangle with rounded corners*
0 $1 Rounding radius*
0 $2 $3 $4 $5 $6 $7 $8 $9 X,Y pos of 4 corners*
0 Add a 4 corners polygon primitive as box body*
4,1,4,$2,$3,$4,$5,$6,$7,$8,$9,$2,$3,0*
0 Add four circle primitives for the rounded corners*
1,1,$1+$1,$2,$3*
1,1,$1+$1,$4,$5*
1,1,$1+$1,$6,$7*
1,1,$1+$1,$8,$9*
0 Add four rect primitives between the rounded corners*
20,1,$1+$1,$2,$3,$4,$5,0*
20,1,$1+$1,$4,$5,$6,$7,0*
20,1,$1+$1,$6,$7,$8,$9,0*
20,1,$1+$1,$8,$9,$2,$3,0*%
G04 Aperture macros list end*
%TA.AperFunction,ComponentPad*%
%ADD10R,3.000000X1.440000*%
%TD*%
%TA.AperFunction,ComponentPad*%
%ADD11O,3.000000X1.440000*%
%TD*%
%TA.AperFunction,ComponentPad*%
%ADD12C,5.400000*%
%TD*%
%TA.AperFunction,ComponentPad*%
%ADD13C,1.600000*%
%TD*%
%TA.AperFunction,ComponentPad*%
%ADD14RoundRect,0.250000X0.550000X0.550000X-0.550000X0.550000X-0.550000X-0.550000X0.550000X-0.550000X0*%
%TD*%
%TA.AperFunction,ComponentPad*%
%ADD15RoundRect,0.250000X0.550000X-0.550000X0.550000X0.550000X-0.550000X0.550000X-0.550000X-0.550000X0*%
%TD*%
%TA.AperFunction,ComponentPad*%
%ADD16R,1.800000X1.800000*%
%TD*%
%TA.AperFunction,ComponentPad*%
%ADD17C,1.800000*%
%TD*%
%TA.AperFunction,ComponentPad*%
%ADD18R,1.900000X1.600000*%
%TD*%
%TA.AperFunction,ComponentPad*%
%ADD19O,1.900000X1.600000*%
%TD*%
%TA.AperFunction,ViaPad*%
%ADD20C,0.600000*%
%TD*%
%TA.AperFunction,Conductor*%
%ADD21C,0.200000*%
%TD*%
G04 APERTURE END LIST*
D10*
%TO.P,U1,1,~{RESET}/PB5_1*%
%TO.N,rst*%
X119810000Y-66135000D03*
D11*
%TO.P,U1,2,XTAL1/PB3_2*%
%TO.N,led*%
X119810000Y-68675000D03*
%TO.P,U1,3,XTAL2/PB4_3*%
%TO.N,GNDPWR*%
X119810000Y-71215000D03*
%TO.P,U1,4,GND_4*%
X119810000Y-73755000D03*
%TO.P,U1,5,AREF/PB0_5*%
X119810000Y-76295000D03*
%TO.P,U1,6,PB1_6*%
X119810000Y-78835000D03*
%TO.P,U1,7,PB2_7*%
X119810000Y-81375000D03*
%TO.P,U1,8,VCC_8*%
X127430000Y-81375000D03*
%TO.P,U1,9*%
X127430000Y-78835000D03*
%TO.P,U1,10*%
X127430000Y-76295000D03*
%TO.P,U1,11*%
%TO.N,mosi*%
X127430000Y-73755000D03*
%TO.P,U1,12*%
%TO.N,miso*%
X127430000Y-71215000D03*
%TO.P,U1,13*%
%TO.N,sck*%
X127430000Y-68675000D03*
%TO.P,U1,14*%
%TO.N,+5v*%
X127430000Y-66135000D03*
%TD*%
D12*
%TO.P,REF2,1*%
%TO.N,N/C*%
X148000000Y-42000000D03*
%TD*%
%TO.P,REF5,1*%
%TO.N,N/C*%
X148000000Y-96500000D03*
%TD*%
%TO.P,REF6,1*%
%TO.N,N/C*%
X196000000Y-96500000D03*
%TD*%
D10*
%TO.P,U2,1,VCC_1*%
%TO.N,+5v*%
X138555000Y-66135000D03*
D11*
%TO.P,U2,2,XTAL1/PB0_2*%
%TO.N,GNDPWR*%
X138555000Y-68675000D03*
%TO.P,U2,3,XTAL2/PB1_3*%
%TO.N,led*%
X138555000Y-71215000D03*
%TO.P,U2,4,~{RESET}/PB3_4*%
%TO.N,rst*%
X138555000Y-73755000D03*
%TO.P,U2,5,PB2_5*%
%TO.N,GNDPWR*%
X138555000Y-76295000D03*
%TO.P,U2,6,PA7_6*%
X138555000Y-78835000D03*
%TO.P,U2,7,PA6_7*%
%TO.N,mosi*%
X138555000Y-81375000D03*
%TO.P,U2,8,PA5_8*%
%TO.N,miso*%
X146175000Y-81375000D03*
%TO.P,U2,9,PA4_9*%
%TO.N,sck*%
X146175000Y-78835000D03*
%TO.P,U2,10,PA3_10*%
%TO.N,GNDPWR*%
X146175000Y-76295000D03*
%TO.P,U2,11,PA2_11*%
X146175000Y-73755000D03*
%TO.P,U2,12,PA1_12*%
X146175000Y-71215000D03*
%TO.P,U2,13,AREF/PA0_13*%
X146175000Y-68675000D03*
%TO.P,U2,14,GND_14*%
X146175000Y-66135000D03*
%TD*%
D12*
%TO.P,REF4,1*%
%TO.N,N/C*%
X110000000Y-96500000D03*
%TD*%
D13*
%TO.P,C2,1*%
%TO.N,+5v*%
X117180400Y-94487000D03*
%TO.P,C2,2*%
%TO.N,GNDPWR*%
X119180400Y-94487000D03*
%TD*%
D12*
%TO.P,REF3,1*%
%TO.N,N/C*%
X196000000Y-42000000D03*
%TD*%
D14*
%TO.P,SW2,1*%
%TO.N,Net-(C1-Pad1)*%
X179255000Y-43310000D03*
D13*
%TO.P,SW2,2*%
%TO.N,Net-(A1-~{RESET}-Pad28)*%
X171635000Y-43310000D03*
%TD*%
%TO.P,R1,1*%
%TO.N,led*%
X142000000Y-94500000D03*
%TO.P,R1,2*%
%TO.N,Net-(D4-A)*%
X131840000Y-94500000D03*
%TD*%
D10*
%TO.P,U3,1,PA2/~{RESET}_1*%
%TO.N,rst*%
X157560000Y-61385000D03*
D11*
%TO.P,U3,2,PD0_2*%
%TO.N,GNDPWR*%
X157560000Y-63925000D03*
%TO.P,U3,3,PD1_3*%
X157560000Y-66465000D03*
%TO.P,U3,4,PA1/XTAL2_4*%
X157560000Y-69005000D03*
%TO.P,U3,5,PA0/XTAL1_5*%
X157560000Y-71545000D03*
%TO.P,U3,6,PD2_6*%
X157560000Y-74085000D03*
%TO.P,U3,7,PD3_7*%
X157560000Y-76625000D03*
%TO.P,U3,8,PD4_8*%
X157560000Y-79165000D03*
%TO.P,U3,9,PD5_9*%
X157560000Y-81705000D03*
%TO.P,U3,10,GND_10*%
X157560000Y-84245000D03*
%TO.P,U3,11,PD6_11*%
X165180000Y-84245000D03*
%TO.P,U3,12,PB0_12*%
X165180000Y-81705000D03*
%TO.P,U3,13,PB1_13*%
%TO.N,led*%
X165180000Y-79165000D03*
%TO.P,U3,14,PB2_14*%
%TO.N,GNDPWR*%
X165180000Y-76625000D03*
%TO.P,U3,15,PB3_15*%
X165180000Y-74085000D03*
%TO.P,U3,16,PB4_16*%
X165180000Y-71545000D03*
%TO.P,U3,17,PB5_17*%
%TO.N,mosi*%
X165180000Y-69005000D03*
%TO.P,U3,18,PB6_18*%
%TO.N,miso*%
X165180000Y-66465000D03*
%TO.P,U3,19,PB7_19*%
%TO.N,sck*%
X165180000Y-63925000D03*
%TO.P,U3,20,VCC_20*%
%TO.N,+5v*%
X165180000Y-61385000D03*
%TD*%
D13*
%TO.P,R3,1*%
%TO.N,Net-(D2-A)*%
X176800000Y-97790000D03*
%TO.P,R3,2*%
%TO.N,Net-(A1-D8)*%
X166640000Y-97790000D03*
%TD*%
D15*
%TO.P,C1,1*%
%TO.N,Net-(C1-Pad1)*%
X189000000Y-42955113D03*
D13*
%TO.P,C1,2*%
%TO.N,GNDPWR*%
X189000000Y-40955113D03*
%TD*%
D16*
%TO.P,D4,1,K_1*%
%TO.N,GNDPWR*%
X124260400Y-94487000D03*
D17*
%TO.P,D4,2,A_2*%
%TO.N,Net-(D4-A)*%
X126800400Y-94487000D03*
%TD*%
D16*
%TO.P,D2,1,K_1*%
%TO.N,GNDPWR*%
X192520000Y-69850000D03*
D17*
%TO.P,D2,2,A_2*%
%TO.N,Net-(D2-A)*%
X195060000Y-69850000D03*
%TD*%
D18*
%TO.P,A1,1,D1/TX_1*%
%TO.N,unconnected-(A1-D1{slash}TX-Pad1)*%
X173055000Y-52085000D03*
D19*
%TO.P,A1,2,D0/RX_2*%
%TO.N,unconnected-(A1-D0{slash}RX-Pad2)*%
X173055000Y-54625000D03*
%TO.P,A1,3,~{RESET}_3*%
%TO.N,unconnected-(A1-~{RESET}-Pad3)*%
X173055000Y-57165000D03*
%TO.P,A1,4,GND_4*%
%TO.N,GNDPWR*%
X173055000Y-59705000D03*
%TO.P,A1,5,D2_5*%
X173055000Y-62245000D03*
%TO.P,A1,6,D3_6*%
X173055000Y-64785000D03*
%TO.P,A1,7,D4_7*%
X173055000Y-67325000D03*
%TO.P,A1,8,D5_8*%
X173055000Y-69865000D03*
%TO.P,A1,9,D6_9*%
X173055000Y-72405000D03*
%TO.P,A1,10,D7_10*%
%TO.N,Net-(A1-D7)*%
X173055000Y-74945000D03*
%TO.P,A1,11,D8_11*%
%TO.N,Net-(A1-D8)*%
X173055000Y-77485000D03*
%TO.P,A1,12,D9_12*%
%TO.N,Net-(A1-D9)*%
X173055000Y-80025000D03*
%TO.P,A1,13,D10_13*%
%TO.N,rst*%
X173055000Y-82565000D03*
%TO.P,A1,14,D11_14*%
%TO.N,mosi*%
X173055000Y-85105000D03*
%TO.P,A1,15,D12_15*%
%TO.N,miso*%
X173055000Y-87645000D03*
%TO.P,A1,16,D13_16*%
%TO.N,sck*%
X188295000Y-87645000D03*
%TO.P,A1,17,3V3_17*%
%TO.N,unconnected-(A1-3V3-Pad17)*%
X188295000Y-85105000D03*
%TO.P,A1,18,AREF_18*%
%TO.N,unconnected-(A1-AREF-Pad18)*%
X188295000Y-82565000D03*
%TO.P,A1,19,A0_19*%
%TO.N,GNDPWR*%
X188295000Y-80025000D03*
%TO.P,A1,20,A1_20*%
X188295000Y-77485000D03*
%TO.P,A1,21,A2_21*%
X188295000Y-74945000D03*
%TO.P,A1,22,A3_22*%
X188295000Y-72405000D03*
%TO.P,A1,23,A4_23*%
X188295000Y-69865000D03*
%TO.P,A1,24,A5_24*%
X188295000Y-67325000D03*
%TO.P,A1,25,A6_25*%
X188295000Y-64785000D03*
%TO.P,A1,26,A7_26*%
X188295000Y-62245000D03*
%TO.P,A1,27,+5V_27*%
%TO.N,+5v*%
X188295000Y-59705000D03*
%TO.P,A1,28,~{RESET}_28*%
%TO.N,Net-(A1-~{RESET}-Pad28)*%
X188295000Y-57165000D03*
%TO.P,A1,29,GND_29*%
%TO.N,GNDPWR*%
X188295000Y-54625000D03*
%TO.P,A1,30,VIN_30*%
%TO.N,unconnected-(A1-VIN-Pad30)*%
X188295000Y-52085000D03*
%TD*%
D13*
%TO.P,R2,1*%
%TO.N,Net-(D1-A)*%
X163600000Y-94790000D03*
%TO.P,R2,2*%
%TO.N,Net-(A1-D7)*%
X153440000Y-94790000D03*
%TD*%
D16*
%TO.P,D3,1,K_1*%
%TO.N,GNDPWR*%
X192520000Y-80010000D03*
D17*
%TO.P,D3,2,A_2*%
%TO.N,Net-(D3-A)*%
X195060000Y-80010000D03*
%TD*%
D12*
%TO.P,REF1,1*%
%TO.N,N/C*%
X110000000Y-42000000D03*
%TD*%
D16*
%TO.P,D1,1,K_1*%
%TO.N,GNDPWR*%
X192520000Y-59690000D03*
D17*
%TO.P,D1,2,A_2*%
%TO.N,Net-(D1-A)*%
X195060000Y-59690000D03*
%TD*%
D13*
%TO.P,R4,1*%
%TO.N,Net-(D3-A)*%
X190500000Y-97790000D03*
%TO.P,R4,2*%
%TO.N,Net-(A1-D9)*%
X180340000Y-97790000D03*
%TD*%
D20*
%TO.N,miso*%
X140750000Y-85500000D03*
X143750000Y-85500000D03*
%TO.N,sck*%
X143250000Y-83750000D03*
X141250000Y-83750000D03*
%TO.N,Net-(A1-D9)*%
X173000000Y-95000000D03*
X176500000Y-95000000D03*
%TD*%
%TO.N,rst*%
D21*
X141750000Y-69500000D02*
X141250000Y-70000000D01*
X119810000Y-66135000D02*
X122885000Y-66135000D01*
X136505000Y-73755000D02*
X138555000Y-73755000D01*
X145865000Y-61385000D02*
X141750000Y-65500000D01*
X157560000Y-51940000D02*
X157560000Y-61385000D01*
X136000000Y-73250000D02*
X136505000Y-73755000D01*
X124250000Y-67500000D02*
X132500000Y-67500000D01*
X141250000Y-70000000D02*
X137000000Y-70000000D01*
X122885000Y-66135000D02*
X124250000Y-67500000D01*
X177000000Y-47000000D02*
X162500000Y-47000000D01*
X136000000Y-71000000D02*
X136000000Y-73250000D01*
X173055000Y-82565000D02*
X176935000Y-82565000D01*
X157560000Y-61385000D02*
X145865000Y-61385000D01*
X162500000Y-47000000D02*
X157560000Y-51940000D01*
X137000000Y-70000000D02*
X136000000Y-71000000D01*
X141750000Y-65500000D02*
X141750000Y-69500000D01*
X178000000Y-48000000D02*
X177000000Y-47000000D01*
X132500000Y-67500000D02*
X136000000Y-71000000D01*
X178000000Y-81500000D02*
X178000000Y-48000000D01*
X176935000Y-82565000D02*
X178000000Y-81500000D01*
%TO.N,led*%
X137750000Y-90250000D02*
X142000000Y-94500000D01*
X167500000Y-90250000D02*
X146250000Y-90250000D01*
X115000000Y-88500000D02*
X116750000Y-90250000D01*
X115000000Y-70500000D02*
X115000000Y-88500000D01*
X140715000Y-71215000D02*
X138555000Y-71215000D01*
X116825000Y-68675000D02*
X115000000Y-70500000D01*
X116750000Y-90250000D02*
X137750000Y-90250000D01*
X142000000Y-94500000D02*
X142000000Y-72500000D01*
X142000000Y-72500000D02*
X140715000Y-71215000D01*
X165180000Y-79165000D02*
X168165000Y-79165000D01*
X119810000Y-68675000D02*
X116825000Y-68675000D01*
X168250000Y-79250000D02*
X168250000Y-89500000D01*
X168250000Y-89500000D02*
X167500000Y-90250000D01*
X168165000Y-79165000D02*
X168250000Y-79250000D01*
X146250000Y-90250000D02*
X142000000Y-94500000D01*
%TO.N,miso*%
X127430000Y-71215000D02*
X125285000Y-71215000D01*
X143750000Y-85500000D02*
X150500000Y-85500000D01*
X163285000Y-66465000D02*
X165180000Y-66465000D01*
X162750000Y-88250000D02*
X162750000Y-67000000D01*
X125750000Y-85500000D02*
X141000000Y-85500000D01*
X124250000Y-84000000D02*
X125750000Y-85500000D01*
X146175000Y-83075000D02*
X146175000Y-81375000D01*
X125285000Y-71215000D02*
X124250000Y-72250000D01*
X150500000Y-85500000D02*
X154500000Y-89500000D01*
X143750000Y-85500000D02*
X146175000Y-83075000D01*
X154500000Y-89500000D02*
X161500000Y-89500000D01*
X161500000Y-89500000D02*
X162750000Y-88250000D01*
X162750000Y-67000000D02*
X163285000Y-66465000D01*
X141000000Y-85500000D02*
X140750000Y-85500000D01*
X124250000Y-72250000D02*
X124250000Y-84000000D01*
%TO.N,sck*%
X149500000Y-79500000D02*
X149500000Y-83750000D01*
X162825000Y-63925000D02*
X165180000Y-63925000D01*
X146175000Y-78835000D02*
X148835000Y-78835000D01*
X133750000Y-70000000D02*
X133750000Y-83500000D01*
X144165000Y-78835000D02*
X146175000Y-78835000D01*
X162217157Y-64532843D02*
X162825000Y-63925000D01*
X133750000Y-83500000D02*
X134000000Y-83750000D01*
X127430000Y-68675000D02*
X132425000Y-68675000D01*
X161467157Y-88967157D02*
X162217157Y-88217157D01*
X162217157Y-88217157D02*
X162217157Y-64532843D01*
X148835000Y-78835000D02*
X149500000Y-79500000D01*
X149500000Y-83750000D02*
X154717157Y-88967157D01*
X154717157Y-88967157D02*
X161467157Y-88967157D01*
X132425000Y-68675000D02*
X133750000Y-70000000D01*
X134000000Y-83750000D02*
X141250000Y-83750000D01*
X143250000Y-79750000D02*
X144165000Y-78835000D01*
X143250000Y-83750000D02*
X143250000Y-79750000D01*
%TO.N,+5v*%
X113750000Y-66250000D02*
X115750000Y-64250000D01*
X115750000Y-64250000D02*
X125545000Y-64250000D01*
X117180400Y-94487000D02*
X113750000Y-91056600D01*
X125545000Y-64250000D02*
X127430000Y-66135000D01*
X113750000Y-91056600D02*
X113750000Y-66250000D01*
X127430000Y-66135000D02*
X138555000Y-66135000D01*
%TO.N,Net-(A1-~{RESET}-Pad28)*%
X189835000Y-57165000D02*
X188295000Y-57165000D01*
X173325000Y-45000000D02*
X186250000Y-45000000D01*
X186250000Y-45000000D02*
X191500000Y-50250000D01*
X171635000Y-43310000D02*
X173325000Y-45000000D01*
X191500000Y-50250000D02*
X191500000Y-55500000D01*
X191500000Y-55500000D02*
X189835000Y-57165000D01*
%TO.N,Net-(D4-A)*%
X131827000Y-94487000D02*
X131840000Y-94500000D01*
X126800400Y-94487000D02*
X131827000Y-94487000D01*
%TO.N,Net-(D2-A)*%
X192000000Y-95750000D02*
X196750000Y-91000000D01*
X177800000Y-97790000D02*
X179510000Y-99500000D01*
X196750000Y-71540000D02*
X195060000Y-69850000D01*
X191750000Y-99500000D02*
X192000000Y-99250000D01*
X176800000Y-97790000D02*
X177800000Y-97790000D01*
X179510000Y-99500000D02*
X191750000Y-99500000D01*
X196750000Y-91000000D02*
X196750000Y-71540000D01*
X192000000Y-99250000D02*
X192000000Y-95750000D01*
%TO.N,Net-(A1-D8)*%
X172265000Y-77485000D02*
X173055000Y-77485000D01*
X172765000Y-77485000D02*
X173055000Y-77485000D01*
X166640000Y-97790000D02*
X166640000Y-93360000D01*
X169750000Y-90250000D02*
X169750000Y-80500000D01*
X169750000Y-80500000D02*
X172765000Y-77485000D01*
X166640000Y-93360000D02*
X169750000Y-90250000D01*
%TO.N,Net-(A1-D7)*%
X153440000Y-92560000D02*
X153440000Y-94790000D01*
X173055000Y-74945000D02*
X172805000Y-74945000D01*
X167500000Y-91500000D02*
X154500000Y-91500000D01*
X154500000Y-91500000D02*
X153440000Y-92560000D01*
X169000000Y-90000000D02*
X167500000Y-91500000D01*
X172805000Y-74945000D02*
X169000000Y-78750000D01*
X169000000Y-78750000D02*
X169000000Y-90000000D01*
%TO.N,Net-(A1-D9)*%
X173000000Y-95000000D02*
X170750000Y-92750000D01*
X170750000Y-81250000D02*
X171975000Y-80025000D01*
X171975000Y-80025000D02*
X173055000Y-80025000D01*
X180340000Y-97790000D02*
X177550000Y-95000000D01*
X177550000Y-95000000D02*
X176500000Y-95000000D01*
X170750000Y-92750000D02*
X170750000Y-81250000D01*
%TO.N,Net-(D1-A)*%
X189750000Y-93750000D02*
X190500000Y-93000000D01*
X194000000Y-64250000D02*
X195060000Y-63190000D01*
X164000000Y-99500000D02*
X172500000Y-99500000D01*
X195060000Y-63190000D02*
X195060000Y-59690000D01*
X175750000Y-93750000D02*
X189750000Y-93750000D01*
X172500000Y-99500000D02*
X175000000Y-97000000D01*
X190500000Y-65750000D02*
X192000000Y-64250000D01*
X190500000Y-93000000D02*
X190500000Y-65750000D01*
X192000000Y-64250000D02*
X194000000Y-64250000D01*
X163600000Y-94790000D02*
X163600000Y-99100000D01*
X175000000Y-97000000D02*
X175000000Y-94500000D01*
X175000000Y-94500000D02*
X175750000Y-93750000D01*
X163600000Y-99100000D02*
X164000000Y-99500000D01*
%TO.N,Net-(D3-A)*%
X195060000Y-80010000D02*
X195060000Y-90940000D01*
X190500000Y-97790000D02*
X190500000Y-95500000D01*
X195060000Y-90940000D02*
X190500000Y-95500000D01*
%TD*%
M02*
