%TF.GenerationSoftware,KiCad,Pcbnew,10.0.3*%
%TF.CreationDate,2026-07-10T11:54:48+02:00*%
%TF.ProjectId,Projet_Programmateur_ATtiny_V3,50726f6a-6574-45f5-9072-6f6772616d6d,V3*%
%TF.SameCoordinates,Original*%
%TF.FileFunction,Soldermask,Top*%
%TF.FilePolarity,Negative*%
%FSLAX46Y46*%
G04 Gerber Fmt 4.6, Leading zero omitted, Abs format (unit mm)*
G04 Created by KiCad (PCBNEW 10.0.3) date 2026-07-10 11:54:48*
%MOMM*%
%LPD*%
G01*
G04 APERTURE LIST*
G04 Aperture macros list*
%AMRoundRect*
0 Rectangle with rounded corners*
0 $1 Rounding radius*
0 $2 $3 $4 $5 $6 $7 $8 $9 X,Y pos of 4 corners*
0 Add a 4 corners polygon primitive as box body*
4,1,4,$2,$3,$4,$5,$6,$7,$8,$9,$2,$3,0*
0 Add four circle primitives for the rounded corners*
1,1,$1+$1,$2,$3*
1,1,$1+$1,$4,$5*
1,1,$1+$1,$6,$7*
1,1,$1+$1,$8,$9*
0 Add four rect primitives between the rounded corners*
20,1,$1+$1,$2,$3,$4,$5,0*
20,1,$1+$1,$4,$5,$6,$7,0*
20,1,$1+$1,$6,$7,$8,$9,0*
20,1,$1+$1,$8,$9,$2,$3,0*%
G04 Aperture macros list end*
%ADD10R,3.000000X1.440000*%
%ADD11O,3.000000X1.440000*%
%ADD12C,5.400000*%
%ADD13C,1.600000*%
%ADD14RoundRect,0.250000X0.550000X0.550000X-0.550000X0.550000X-0.550000X-0.550000X0.550000X-0.550000X0*%
%ADD15RoundRect,0.250000X0.550000X-0.550000X0.550000X0.550000X-0.550000X0.550000X-0.550000X-0.550000X0*%
%ADD16R,1.800000X1.800000*%
%ADD17C,1.800000*%
%ADD18R,1.900000X1.600000*%
%ADD19O,1.900000X1.600000*%
G04 APERTURE END LIST*
D10*
%TO.C,U1*%
X119810000Y-66135000D03*
D11*
X119810000Y-68675000D03*
X119810000Y-71215000D03*
X119810000Y-73755000D03*
X119810000Y-76295000D03*
X119810000Y-78835000D03*
X119810000Y-81375000D03*
X127430000Y-81375000D03*
X127430000Y-78835000D03*
X127430000Y-76295000D03*
X127430000Y-73755000D03*
X127430000Y-71215000D03*
X127430000Y-68675000D03*
X127430000Y-66135000D03*
%TD*%
D12*
%TO.C,REF2*%
X148000000Y-42000000D03*
%TD*%
%TO.C,REF5*%
X148000000Y-96500000D03*
%TD*%
%TO.C,REF6*%
X196000000Y-96500000D03*
%TD*%
D10*
%TO.C,U2*%
X138555000Y-66135000D03*
D11*
X138555000Y-68675000D03*
X138555000Y-71215000D03*
X138555000Y-73755000D03*
X138555000Y-76295000D03*
X138555000Y-78835000D03*
X138555000Y-81375000D03*
X146175000Y-81375000D03*
X146175000Y-78835000D03*
X146175000Y-76295000D03*
X146175000Y-73755000D03*
X146175000Y-71215000D03*
X146175000Y-68675000D03*
X146175000Y-66135000D03*
%TD*%
D12*
%TO.C,REF4*%
X110000000Y-96500000D03*
%TD*%
D13*
%TO.C,C2*%
X117180400Y-94487000D03*
X119180400Y-94487000D03*
%TD*%
D12*
%TO.C,REF3*%
X196000000Y-42000000D03*
%TD*%
D14*
%TO.C,SW2*%
X179255000Y-43310000D03*
D13*
X171635000Y-43310000D03*
%TD*%
%TO.C,R1*%
X142000000Y-94500000D03*
X131840000Y-94500000D03*
%TD*%
D10*
%TO.C,U3*%
X157560000Y-61385000D03*
D11*
X157560000Y-63925000D03*
X157560000Y-66465000D03*
X157560000Y-69005000D03*
X157560000Y-71545000D03*
X157560000Y-74085000D03*
X157560000Y-76625000D03*
X157560000Y-79165000D03*
X157560000Y-81705000D03*
X157560000Y-84245000D03*
X165180000Y-84245000D03*
X165180000Y-81705000D03*
X165180000Y-79165000D03*
X165180000Y-76625000D03*
X165180000Y-74085000D03*
X165180000Y-71545000D03*
X165180000Y-69005000D03*
X165180000Y-66465000D03*
X165180000Y-63925000D03*
X165180000Y-61385000D03*
%TD*%
D13*
%TO.C,R3*%
X176800000Y-97790000D03*
X166640000Y-97790000D03*
%TD*%
D15*
%TO.C,C1*%
X189000000Y-42955113D03*
D13*
X189000000Y-40955113D03*
%TD*%
D16*
%TO.C,D4*%
X124260400Y-94487000D03*
D17*
X126800400Y-94487000D03*
%TD*%
D16*
%TO.C,D2*%
X192520000Y-69850000D03*
D17*
X195060000Y-69850000D03*
%TD*%
D18*
%TO.C,A1*%
X173055000Y-52085000D03*
D19*
X173055000Y-54625000D03*
X173055000Y-57165000D03*
X173055000Y-59705000D03*
X173055000Y-62245000D03*
X173055000Y-64785000D03*
X173055000Y-67325000D03*
X173055000Y-69865000D03*
X173055000Y-72405000D03*
X173055000Y-74945000D03*
X173055000Y-77485000D03*
X173055000Y-80025000D03*
X173055000Y-82565000D03*
X173055000Y-85105000D03*
X173055000Y-87645000D03*
X188295000Y-87645000D03*
X188295000Y-85105000D03*
X188295000Y-82565000D03*
X188295000Y-80025000D03*
X188295000Y-77485000D03*
X188295000Y-74945000D03*
X188295000Y-72405000D03*
X188295000Y-69865000D03*
X188295000Y-67325000D03*
X188295000Y-64785000D03*
X188295000Y-62245000D03*
X188295000Y-59705000D03*
X188295000Y-57165000D03*
X188295000Y-54625000D03*
X188295000Y-52085000D03*
%TD*%
D13*
%TO.C,R2*%
X163600000Y-94790000D03*
X153440000Y-94790000D03*
%TD*%
D16*
%TO.C,D3*%
X192520000Y-80010000D03*
D17*
X195060000Y-80010000D03*
%TD*%
D12*
%TO.C,REF1*%
X110000000Y-42000000D03*
%TD*%
D16*
%TO.C,D1*%
X192520000Y-59690000D03*
D17*
X195060000Y-59690000D03*
%TD*%
D13*
%TO.C,R4*%
X190500000Y-97790000D03*
X180340000Y-97790000D03*
%TD*%
M02*
